Coordinates
version=1
nRows=13
nColumns=40
inDegrees=yes

Units are S.I. units (second, meters, Newtons, ...)
Angles are in degrees.

endheader
time	pelvis_tilt	pelvis_list	pelvis_rotation	pelvis_tx	pelvis_ty	pelvis_tz	hip_flexion_r	hip_adduction_r	hip_rotation_r	knee_angle_r	knee_angle_r_beta	ankle_angle_r	subtalar_angle_r	mtp_angle_r	hip_flexion_l	hip_adduction_l	hip_rotation_l	knee_angle_l	knee_angle_l_beta	ankle_angle_l	subtalar_angle_l	mtp_angle_l	lumbar_extension	lumbar_bending	lumbar_rotation	arm_flex_r	arm_add_r	arm_rot_r	elbow_flex_r	pro_sup_r	wrist_flex_r	wrist_dev_r	arm_flex_l	arm_add_l	arm_rot_l	elbow_flex_l	pro_sup_l	wrist_flex_l	wrist_dev_l
      0.31000000	     -5.80756311	     -3.24232282	     10.09151796	     -0.49031014	      0.95094062	      1.61473613	     11.96125859	     -1.57338445	    -15.44643482	    -18.03671330	     -0.31480003	      5.82510008	     -1.88395426	     -3.67561409	     25.05223821	      4.24099319	      2.79437344	    -63.48756158	     -1.10806698	      5.83564912	     18.18977880	     15.47690923	     -1.27648091	      0.43326713	     -4.08458243	      2.70294626	    -14.49515547	    -18.54509943	     23.45544927	     89.95437384	      0.00000000	      0.00000000	     -0.79774809	     10.79189378	      5.26327010	     25.92370555	     89.95437384	      0.00000000	      0.00000000
      0.32000000	     -5.59345361	     -2.46882937	      9.67493290	     -0.47723566	      0.95263306	      1.61637427	     10.36821899	     -2.03106680	    -15.51578085	    -17.23024918	     -0.30072458	      6.20040764	     -1.12557576	     -4.08577886	     25.88963698	      3.66196420	      3.97356356	    -62.09634953	     -1.08378575	      6.04774828	     18.07838556	     15.28695646	     -1.69984865	     -0.53884734	     -3.04771005	      3.32033231	    -14.60356558	    -17.93509367	     23.91777978	     89.95437384	      0.00000000	      0.00000000	     -1.15631380	     11.33457658	      5.82307439	     24.71319974	     89.95437384	      0.00000000	      0.00000000
      0.33000000	     -5.40734226	     -1.74738602	      9.21178488	     -0.46399436	      0.95383847	      1.61814157	      8.88903651	     -2.41367875	    -15.27517555	    -16.54972498	     -0.28884719	      6.53205914	     -0.56134106	     -4.45405631	     26.68710100	      3.22774313	      5.24635481	    -60.41196753	     -1.05438774	      6.24520218	     17.85554591	     15.05392842	     -2.04207540	     -1.49107226	     -1.99723395	      3.91949086	    -14.72092842	    -17.14734376	     24.33739787	     89.95437384	      0.00000000	      0.00000000	     -1.59745130	     11.94906974	      6.39498124	     23.63612253	     89.95437384	      0.00000000	      0.00000000
      0.34000000	     -5.28189828	     -1.11687142	      8.71227241	     -0.45083711	      0.95449583	      1.61979843	      7.55578185	     -2.73689115	    -14.99249040	    -15.92286636	     -0.27790644	      6.94526888	     -0.15588456	     -4.74853553	     27.49515942	      2.90274569	      6.45180494	    -58.49957001	     -1.02101011	      6.30543018	     17.56043188	     14.84578084	     -2.29268475	     -2.33148120	     -0.99432806	      4.55832397	    -14.90726791	    -16.33170824	     24.84238021	     89.95437384	      0.00000000	      0.00000000	     -2.05567490	     12.52152081	      6.93234468	     22.53902632	     89.95437384	      0.00000000	      0.00000000
      0.35000000	     -5.01696274	     -0.49553914	      8.17316466	     -0.43754341	      0.95493400	      1.62135200	      6.11263629	     -3.05822825	    -14.62414201	    -15.44159552	     -0.26950668	      7.52085362	     -0.02992074	     -5.16800491	     28.05479121	      2.62087613	      7.66736707	    -56.30389907	     -0.98268842	      6.35026368	     17.24198698	     14.59404599	     -2.67946810	     -3.14120783	      0.04211970	      5.16281873	    -15.12587096	    -15.43105705	     25.44851131	     89.95437384	      0.00000000	      0.00000000	     -2.55026518	     13.10011790	      7.74972157	     21.59122429	     89.95437384	      0.00000000	      0.00000000
      0.36000000	     -4.97771652	      0.06807209	      7.70438168	     -0.42439369	      0.95458151	      1.62263177	      4.93508459	     -3.38455545	    -14.30235572	    -14.97410633	     -0.26134746	      8.03435466	      0.08382774	     -5.53065259	     28.80666514	      2.34883630	      8.77869370	    -53.91963613	     -0.94107518	      6.28853128	     16.75049658	     14.33194672	     -2.78553866	     -3.91235059	      0.94329841	      5.78875798	    -15.33719836	    -14.58838815	     26.00021530	     89.95437384	      0.00000000	      0.00000000	     -3.08737637	     13.65760961	      8.53187017	     20.61594097	     89.95437384	      0.00000000	      0.00000000
      0.37000000	     -5.18072330	     -0.06411924	      7.55068324	     -0.41163663	      0.95318876	      1.62395160	      4.25568747	     -3.04681307	    -14.65583325	    -14.83919783	     -0.25899286	      8.44178343	     -0.00015833	     -5.60012423	     30.12034629	      2.68065311	      9.34994068	    -51.66886084	     -0.90179174	      6.38228884	     16.41799042	     14.15053218	     -2.55669585	     -3.96859249	      1.56609844	      6.40123174	    -15.52007725	    -14.28256851	     26.61917555	     89.95437384	      0.00000000	      0.00000000	     -3.85955255	     14.28227502	      8.75161515	     20.14775725	     89.95437384	      0.00000000	      0.00000000
      0.38000000	     -4.46601555	      1.05702061	      6.76128886	     -0.39767880	      0.95363923	      1.62489937	      2.09647244	     -3.92720569	    -13.91971292	    -14.04516276	     -0.24513433	      9.11463543	      0.51643293	     -6.45795225	     29.43654790	      2.01869935	     10.87015959	    -48.16723026	     -0.84067676	      5.99770479	     15.35919219	     13.50167503	     -3.46649066	     -5.24380936	      2.55921707	      7.09132249	    -15.87603240	    -12.58783493	     27.37469715	     89.95437384	      0.00000000	      0.00000000	     -4.21024103	     14.62597996	     11.00489453	     18.90633703	     89.95437384	      0.00000000	      0.00000000
      0.39000000	     -4.79581978	      0.75342238	      6.67022008	     -0.38502154	      0.95131680	      1.62558249	      1.54082550	     -3.45754159	    -14.25499191	    -13.91181785	     -0.24280703	      9.51716302	      0.46226827	     -6.53107142	     30.75168190	      2.43060706	     11.17281288	    -45.53829925	     -0.79479326	      6.05951571	     14.86235428	     13.34137191	     -3.06474354	     -5.07781556	      3.07690919	      7.68284206	    -16.14476317	    -12.29666451	     28.04324222	     89.95437384	      0.00000000	      0.00000000	     -5.02189285	     15.18170397	     11.16272071	     18.40612055	     89.95437384	      0.00000000	      0.00000000
      0.40000000	     -4.34856574	      1.63202680	      6.08645981	     -0.37142956	      0.95068177	      1.62591858	     -0.29864974	     -4.21148089	    -13.92938963	    -13.10184546	     -0.22867034	     10.23089177	      0.94633121	     -7.21934107	     30.28658834	      1.79304072	     12.16102858	    -41.61136061	     -0.72625525	      5.26312524	     13.07569003	     12.67362963	     -3.65230181	     -6.08781718	      3.86527843	      8.23746216	    -16.59374362	    -10.58491653	     28.97790240	     89.95437384	      0.00000000	      0.00000000	     -5.44654257	     15.57769821	     12.97331761	     17.39044686	     89.95437384	      0.00000000	      0.00000000
      0.41000000	     -4.12965808	      1.76105771	      5.94062492	     -0.35778567	      0.94911538	      1.62610003	     -1.79408276	     -4.20371487	    -14.55683313	    -12.49047214	     -0.21799986	     10.52600028	      1.60286064	     -7.97985637	     30.36121602	      1.76655791	     12.48116092	    -38.01448443	     -0.66347792	      4.65635939	     11.67166519	     11.95598084	     -3.88192360	     -6.31635863	      4.19881604	      8.82569559	    -16.92754243	     -9.53518996	     29.82157149	     89.95437384	      0.00000000	      0.00000000	     -6.07958214	     15.96835053	     14.48814098	     16.51483749	     89.95437384	      0.00000000	      0.00000000
      0.42000000	     -4.13838642	      1.96380157	      5.85874349	     -0.34434807	      0.94686855	      1.62570109	     -2.88375275	     -4.51705326	    -16.05067024	    -12.12939928	     -0.21169795	     10.08217734	      3.37865414	    -15.61482516	     30.57120636	      1.51616650	     12.60104773	    -34.12775336	     -0.59564166	      2.44803639	     11.07061654	      5.47882241	     -3.88069061	     -6.61571131	      4.45772546	      9.33062584	    -17.30578183	     -8.60573369	     30.80688111	     89.95437384	      0.00000000	      0.00000000	     -6.68140077	     16.31370506	     16.12978856	     15.51336223	     89.95437384	      0.00000000	      0.00000000
      0.43000000	     -4.12286640	      1.91378309	      5.78482888	     -0.33091749	      0.94457985	      1.62543172	     -4.19242862	     -4.28364773	    -16.39722736	    -11.40219626	     -0.19900587	     10.40381628	      3.45946962	    -15.56567360	     30.83023635	      1.60215685	     12.85638390	    -30.48552132	     -0.53207272	      1.51609602	     10.15236760	      5.64872681	     -3.86289323	     -6.62719011	      4.80572312	      9.69806138	    -17.71445947	     -7.81520053	     31.89780993	     89.95437384	      0.00000000	      0.00000000	     -7.30447835	     16.74376234	     16.69167680	     14.67841487	     89.95437384	      0.00000000	      0.00000000
